<?xml version="1.0" encoding="UTF-8" standalone="no"?><!DOCTYPE svg PUBLIC "-//W3C//DTD SVG 1.1//EN" "http://www.w3.org/Graphics/SVG/1.1/DTD/svg11.dtd"><svg width="100%" height="100%" viewBox="0 0 2893 2894" version="1.1" xmlns="http://www.w3.org/2000/svg" xmlns:xlink="http://www.w3.org/1999/xlink" xml:space="preserve" style="fill-rule:evenodd;clip-rule:evenodd;stroke-linejoin:round;stroke-miterlimit:1.41421;"><rect id="DeepHire_Logo_Color_Square" x="0" y="0.543" width="2893" height="2893" style="fill:none;"/><g><g><g><path d="M1457.27,388.604l6.969,1.89l6.659,2.795l387.475,193.701l0.845,0.32l6.124,3.261l1.974,1.399l0.018,0.01l0.034,0.027l3.634,2.575l1.6,1.472l0.355,0.274l0.603,0.607l2.548,2.344l1.214,1.443l0.645,0.649l0.952,1.247l1.657,1.968l0.844,1.309l0.859,1.126l1.094,1.904l0.962,1.492l0.513,1.076l0.972,1.691l1.043,2.531l0.46,0.963l0.248,0.754l0.958,2.324l0.825,3.09l0.139,0.422l0.069,0.358l0.8,2.997l0.924,7.048l0,7.108l-0.036,0.274l0,776.774l-0.412,6.692l-1.229,6.59l-2.029,6.39l-2.796,6.093l-3.523,5.704l-4.196,5.228l-4.805,4.675l-5.343,4.05l-5.798,3.365l-390.114,195.354l0.114,-0.185l-0.631,0.311l0.503,-0.118l-0.298,0.149l-1.878,0.794l-1.361,0.672l-1.135,0.385l-2.012,0.851l-2.845,0.798l-0.766,0.26l-0.558,0.111l-2.508,0.702l-3.934,0.579l0,0l0,0l-2.926,0.43l-6.933,0.131l-6.893,-0.749l-6.743,-1.618l-6.483,-2.46l-6.119,-3.262l-0.268,-0.191l-385.599,-193.093l-5.799,-3.365l-5.343,-4.05l-4.805,-4.675l-4.196,-5.228l-3.522,-5.704l-2.797,-6.093l-2.028,-6.39l-1.23,-6.59l-0.412,-6.692l0,-780.824l0.441,-6.92l1.315,-6.809l2.168,-6.587l2.986,-6.259l3.756,-5.83l4.465,-5.306l5.102,-4.697l5.656,-4.012l6.12,-3.262l2.72,-1.032l385.775,-192.851l6.659,-2.795l6.969,-1.89l7.158,-0.954l7.222,0l7.158,0.954Zm-400.737,248.436l-0.371,-0.186l0,780.824l390.114,195.355l0,0.298l0.298,-0.149l0,0l0,0l390.114,-195.355l0,-780.526l0.152,-0.076l-0.152,-0.076l0,-0.146l-0.146,0.073l-390.041,-194.984l-389.968,194.948Zm390.041,195.318l-0.036,-0.018l42.426,-21.209l-42.39,21.227Z" style="fill:#0b0b0b;"/></g><path d="M1130.91,738.319l103.466,51.812c39.742,19.901 70.12,48.968 91.133,87.201c21.012,38.234 31.519,82.204 31.519,131.912l0,285.391c0,57.135 -11.078,93.725 -33.233,109.77c-22.154,16.045 -54.017,13.659 -95.586,-7.157l-97.299,-48.724l0,-610.205Zm69.891,562.929l32.205,16.127c19.642,9.836 33.575,10.671 41.797,2.504c8.223,-8.166 12.334,-25.391 12.334,-51.673l0,-293.961c0,-23.997 -3.883,-44.51 -11.648,-61.54c-7.766,-17.03 -21.927,-30.692 -42.483,-40.986l-32.205,-16.126l0,445.655Z" style="fill:#4441ff;fill-rule:nonzero;"/><path d="M1540.8,835.08l69.891,-34.998l0,261.394l86.336,-43.234l0,-261.394l69.891,-34.999l0,610.205l-69.891,34.999l0,-271.678l-86.336,43.233l0,271.679l-69.891,34.998l0,-610.205Z" style="fill:#6ec20e;fill-rule:nonzero;"/></g><g transform="matrix(5.90162,0,0,5.90162,-9433.42,-5392.43)"><path d="M1709.91,1239.77c4.741,4.961 7.112,12.109 7.112,21.445l0,18.082c0,8.967 -2.371,15.858 -7.112,20.673c-4.741,4.814 -11.668,7.222 -20.783,7.222c-6.248,0 -12.79,-0.221 -19.626,-0.662l0,-73.762c6.616,-0.294 13.341,-0.441 20.177,-0.441c8.747,0 15.491,2.481 20.232,7.443Zm-31.037,0.716l0,57.995c4.337,0.441 7.755,0.662 10.254,0.662c5.66,0 10.162,-1.636 13.506,-4.907c3.345,-3.271 5.017,-7.993 5.017,-14.168l0,-19.515c0,-6.689 -1.617,-11.742 -4.851,-15.16c-3.234,-3.418 -7.792,-5.127 -13.672,-5.127c-2.279,0 -5.697,0.073 -10.254,0.22Z" style="fill:none;"/><path d="M1758.15,1255.81c3.234,3.381 4.851,8.269 4.851,14.664l0,11.356l-28.336,0l0,6.506c0,3.748 0.9,6.45 2.701,8.103c1.801,1.654 4.649,2.481 8.545,2.481c3.822,0 8.6,-0.588 14.334,-1.764l0.22,8.159c-6.836,1.25 -11.724,1.875 -14.664,1.875c-7.277,0 -12.514,-1.581 -15.712,-4.742c-3.197,-3.16 -4.796,-8.048 -4.796,-14.664l0,-17.31c0,-6.395 1.562,-11.283 4.686,-14.664c3.124,-3.381 7.81,-5.072 14.058,-5.072c6.174,0 10.878,1.691 14.113,5.072Zm-20.949,5.458c-1.691,1.801 -2.536,4.392 -2.536,7.773l0,5.292l18.964,0l0,-4.961c0,-3.529 -0.864,-6.212 -2.591,-8.049c-1.727,-1.838 -4.061,-2.757 -7.001,-2.757c-2.867,0 -5.145,0.901 -6.836,2.702Z" style="fill:none;"/><path d="M1801.59,1255.81c3.234,3.381 4.851,8.269 4.851,14.664l0,11.356l-28.336,0l0,6.506c0,3.748 0.901,6.45 2.701,8.103c1.801,1.654 4.65,2.481 8.545,2.481c3.822,0 8.6,-0.588 14.334,-1.764l0.22,8.159c-6.836,1.25 -11.724,1.875 -14.664,1.875c-7.277,0 -12.514,-1.581 -15.712,-4.742c-3.197,-3.16 -4.796,-8.048 -4.796,-14.664l0,-17.31c0,-6.395 1.562,-11.283 4.686,-14.664c3.124,-3.381 7.81,-5.072 14.058,-5.072c6.174,0 10.879,1.691 14.113,5.072Zm-20.949,5.458c-1.691,1.801 -2.536,4.392 -2.536,7.773l0,5.292l18.964,0l0,-4.961c0,-3.529 -0.863,-6.212 -2.591,-8.049c-1.727,-1.838 -4.061,-2.757 -7.001,-2.757c-2.867,0 -5.145,0.901 -6.836,2.702Z" style="fill:none;"/><path d="M1847.79,1255.48c2.573,3.161 3.859,7.718 3.859,13.672l0,19.626c0,5.733 -1.488,10.235 -4.465,13.506c-2.977,3.271 -7.001,4.907 -12.073,4.907c-1.911,0 -3.951,-0.386 -6.12,-1.158c-2.168,-0.772 -4.171,-1.672 -6.009,-2.701l0,22.933l-9.371,0l0,-74.203l8.82,0l0,7.828c4.043,-6.1 8.894,-9.151 14.554,-9.151c4.631,0 8.233,1.58 10.805,4.741Zm-19.129,6.009c-2.169,1.581 -4.061,3.731 -5.679,6.45l0,27.013c1.544,1.25 3.253,2.224 5.127,2.922c1.875,0.698 3.584,1.047 5.127,1.047c6.028,0 9.041,-3.822 9.041,-11.466l0,-16.98c0,-7.571 -2.389,-11.356 -7.166,-11.356c-2.132,0 -4.282,0.79 -6.45,2.37Z" style="fill:none;"/><path d="M1908.43,1233.65l0,72.218l-9.372,0l0,-33.077l-28.666,0l0,33.077l-9.372,0l0,-72.218l9.372,0l0,30.762l28.666,0l0,-30.762l9.372,0Z" style="fill:none;"/><path d="M1930.48,1252.06l0,53.805l-9.372,0l0,-53.805l9.372,0Zm-0.166,-20.397c1.066,0.882 1.599,2.131 1.599,3.748l0,3.198c0,1.617 -0.533,2.848 -1.599,3.694c-1.066,0.845 -2.591,1.267 -4.575,1.267c-1.912,0 -3.4,-0.422 -4.466,-1.267c-1.066,-0.846 -1.599,-2.077 -1.599,-3.694l0,-3.198c0,-1.617 0.533,-2.866 1.599,-3.748c1.066,-0.882 2.554,-1.323 4.466,-1.323c1.984,0 3.509,0.441 4.575,1.323Z" style="fill:none;"/><path d="M1968.52,1250.96l0,10.584c-1.102,-0.22 -2.536,-0.33 -4.3,-0.33c-5.145,0 -9.225,2.572 -12.238,7.717l0,36.936l-9.372,0l0,-53.805l8.82,0l0,8.049c1.985,-3.014 4.208,-5.329 6.671,-6.946c2.462,-1.617 5.127,-2.426 7.993,-2.426c1.03,0 1.838,0.074 2.426,0.221Z" style="fill:none;"/><path d="M2006.12,1255.81c3.234,3.381 4.851,8.269 4.851,14.664l0,11.356l-28.336,0l0,6.506c0,3.748 0.9,6.45 2.701,8.103c1.801,1.654 4.649,2.481 8.545,2.481c3.822,0 8.6,-0.588 14.333,-1.764l0.221,8.159c-6.836,1.25 -11.724,1.875 -14.664,1.875c-7.277,0 -12.514,-1.581 -15.712,-4.742c-3.197,-3.16 -4.796,-8.048 -4.796,-14.664l0,-17.31c0,-6.395 1.562,-11.283 4.686,-14.664c3.124,-3.381 7.81,-5.072 14.058,-5.072c6.174,0 10.878,1.691 14.113,5.072Zm-20.949,5.458c-1.691,1.801 -2.536,4.392 -2.536,7.773l0,5.292l18.964,0l0,-4.961c0,-3.529 -0.864,-6.212 -2.591,-8.049c-1.727,-1.838 -4.061,-2.757 -7.001,-2.757c-2.867,0 -5.146,0.901 -6.836,2.702Z" style="fill:none;"/><path d="M1709.91,1239.77c4.741,4.961 7.112,12.109 7.112,21.445l0,18.082c0,8.967 -2.371,15.858 -7.112,20.673c-4.741,4.814 -11.668,7.222 -20.783,7.222c-6.248,0 -12.79,-0.221 -19.626,-0.662l0,-73.762c6.616,-0.294 13.341,-0.441 20.177,-0.441c8.747,0 15.491,2.481 20.232,7.443Zm-31.037,0.716l0,57.995c4.337,0.441 7.755,0.662 10.254,0.662c5.66,0 10.162,-1.636 13.506,-4.907c3.345,-3.271 5.017,-7.993 5.017,-14.168l0,-19.515c0,-6.689 -1.617,-11.742 -4.851,-15.16c-3.234,-3.418 -7.792,-5.127 -13.672,-5.127c-2.279,0 -5.697,0.073 -10.254,0.22Z" style="fill-rule:nonzero;"/><path d="M1758.15,1255.81c3.234,3.381 4.851,8.269 4.851,14.664l0,11.356l-28.336,0l0,6.506c0,3.748 0.9,6.45 2.701,8.103c1.801,1.654 4.649,2.481 8.545,2.481c3.822,0 8.6,-0.588 14.334,-1.764l0.22,8.159c-6.836,1.25 -11.724,1.875 -14.664,1.875c-7.277,0 -12.514,-1.581 -15.712,-4.742c-3.197,-3.16 -4.796,-8.048 -4.796,-14.664l0,-17.31c0,-6.395 1.562,-11.283 4.686,-14.664c3.124,-3.381 7.81,-5.072 14.058,-5.072c6.174,0 10.878,1.691 14.113,5.072Zm-20.949,5.458c-1.691,1.801 -2.536,4.392 -2.536,7.773l0,5.292l18.964,0l0,-4.961c0,-3.529 -0.864,-6.212 -2.591,-8.049c-1.727,-1.838 -4.061,-2.757 -7.001,-2.757c-2.867,0 -5.145,0.901 -6.836,2.702Z" style="fill-rule:nonzero;"/><path d="M1801.59,1255.81c3.234,3.381 4.851,8.269 4.851,14.664l0,11.356l-28.336,0l0,6.506c0,3.748 0.901,6.45 2.701,8.103c1.801,1.654 4.65,2.481 8.545,2.481c3.822,0 8.6,-0.588 14.334,-1.764l0.22,8.159c-6.836,1.25 -11.724,1.875 -14.664,1.875c-7.277,0 -12.514,-1.581 -15.712,-4.742c-3.197,-3.16 -4.796,-8.048 -4.796,-14.664l0,-17.31c0,-6.395 1.562,-11.283 4.686,-14.664c3.124,-3.381 7.81,-5.072 14.058,-5.072c6.174,0 10.879,1.691 14.113,5.072Zm-20.949,5.458c-1.691,1.801 -2.536,4.392 -2.536,7.773l0,5.292l18.964,0l0,-4.961c0,-3.529 -0.863,-6.212 -2.591,-8.049c-1.727,-1.838 -4.061,-2.757 -7.001,-2.757c-2.867,0 -5.145,0.901 -6.836,2.702Z" style="fill-rule:nonzero;"/><path d="M1847.79,1255.48c2.573,3.161 3.859,7.718 3.859,13.672l0,19.626c0,5.733 -1.488,10.235 -4.465,13.506c-2.977,3.271 -7.001,4.907 -12.073,4.907c-1.911,0 -3.951,-0.386 -6.12,-1.158c-2.168,-0.772 -4.171,-1.672 -6.009,-2.701l0,22.933l-9.371,0l0,-74.203l8.82,0l0,7.828c4.043,-6.1 8.894,-9.151 14.554,-9.151c4.631,0 8.233,1.58 10.805,4.741Zm-19.129,6.009c-2.169,1.581 -4.061,3.731 -5.679,6.45l0,27.013c1.544,1.25 3.253,2.224 5.127,2.922c1.875,0.698 3.584,1.047 5.127,1.047c6.028,0 9.041,-3.822 9.041,-11.466l0,-16.98c0,-7.571 -2.389,-11.356 -7.166,-11.356c-2.132,0 -4.282,0.79 -6.45,2.37Z" style="fill-rule:nonzero;"/><path d="M1908.43,1233.65l0,72.218l-9.372,0l0,-33.077l-28.666,0l0,33.077l-9.372,0l0,-72.218l9.372,0l0,30.762l28.666,0l0,-30.762l9.372,0Z" style="fill-rule:nonzero;"/><path d="M1930.48,1252.06l0,53.805l-9.372,0l0,-53.805l9.372,0Zm-0.166,-20.397c1.066,0.882 1.599,2.131 1.599,3.748l0,3.198c0,1.617 -0.533,2.848 -1.599,3.694c-1.066,0.845 -2.591,1.267 -4.575,1.267c-1.912,0 -3.4,-0.422 -4.466,-1.267c-1.066,-0.846 -1.599,-2.077 -1.599,-3.694l0,-3.198c0,-1.617 0.533,-2.866 1.599,-3.748c1.066,-0.882 2.554,-1.323 4.466,-1.323c1.984,0 3.509,0.441 4.575,1.323Z" style="fill-rule:nonzero;"/><path d="M1968.52,1250.96l0,10.584c-1.102,-0.22 -2.536,-0.33 -4.3,-0.33c-5.145,0 -9.225,2.572 -12.238,7.717l0,36.936l-9.372,0l0,-53.805l8.82,0l0,8.049c1.985,-3.014 4.208,-5.329 6.671,-6.946c2.462,-1.617 5.127,-2.426 7.993,-2.426c1.03,0 1.838,0.074 2.426,0.221Z" style="fill-rule:nonzero;"/><path d="M2006.12,1255.81c3.234,3.381 4.851,8.269 4.851,14.664l0,11.356l-28.336,0l0,6.506c0,3.748 0.9,6.45 2.701,8.103c1.801,1.654 4.649,2.481 8.545,2.481c3.822,0 8.6,-0.588 14.333,-1.764l0.221,8.159c-6.836,1.25 -11.724,1.875 -14.664,1.875c-7.277,0 -12.514,-1.581 -15.712,-4.742c-3.197,-3.16 -4.796,-8.048 -4.796,-14.664l0,-17.31c0,-6.395 1.562,-11.283 4.686,-14.664c3.124,-3.381 7.81,-5.072 14.058,-5.072c6.174,0 10.878,1.691 14.113,5.072Zm-20.949,5.458c-1.691,1.801 -2.536,4.392 -2.536,7.773l0,5.292l18.964,0l0,-4.961c0,-3.529 -0.864,-6.212 -2.591,-8.049c-1.727,-1.838 -4.061,-2.757 -7.001,-2.757c-2.867,0 -5.146,0.901 -6.836,2.702Z" style="fill-rule:nonzero;"/></g></g></svg>