<?xml version="1.0" encoding="UTF-8" standalone="no"?><!DOCTYPE svg PUBLIC "-//W3C//DTD SVG 1.1//EN" "http://www.w3.org/Graphics/SVG/1.1/DTD/svg11.dtd"><svg width="100%" height="100%" viewBox="0 0 2894 2894" version="1.1" xmlns="http://www.w3.org/2000/svg" xmlns:xlink="http://www.w3.org/1999/xlink" xml:space="preserve" style="fill-rule:evenodd;clip-rule:evenodd;stroke-linejoin:round;stroke-miterlimit:1.41421;"><rect id="DeepHire_Symbol_Square" x="0.346" y="0.543" width="2893" height="2893" style="fill:none;"/><g><g><g><path d="M1456.21,260.904l9.282,1.299l9.123,2.153l8.883,2.989l8.569,3.798l717.32,358.592l0.744,0.28l8.8,4.314l8.34,5.147l7.803,5.929l4.273,3.955l0.109,0.093l0.079,0.081l2.732,2.528l3.092,3.476l0.873,0.9l0.634,0.794l1.915,2.152l2.063,2.828l1.462,1.831l1.066,1.636l1.184,1.623l1.207,2.045l1.857,2.849l1.35,2.585l0.568,0.961l0.542,1.163l2.046,3.918l1.464,3.611l0.089,0.191l0.078,0.221l2.025,4.996l2.772,9.33l1.863,9.552l0.935,9.688l0,9.732l-0.164,1.699l0,1440.28l-0.43,9.312l-1.285,9.233l-2.13,9.076l-2.956,8.84l-3.759,8.531l-4.527,8.149l-5.259,7.697l-5.945,7.18l-6.582,6.603l-7.161,5.968l-7.68,5.283l-8.134,4.554l-723.075,362.089l-0.004,0.002l-0.54,0.27l-8.961,3.958l-9.303,3.073l-9.556,2.157l-9.72,1.223l-9.793,0.277l-9.774,-0.672l-9.663,-1.615l-9.461,-2.542l-9.171,-3.445l-8.795,-4.317l-3.938,-2.433l-715.512,-358.301l-8.134,-4.554l-7.681,-5.283l-7.161,-5.968l-6.581,-6.603l-5.945,-7.18l-5.259,-7.697l-4.528,-8.148l-3.758,-8.531l-2.957,-8.841l-2.13,-9.076l-1.285,-9.233l-0.43,-9.312l0,-1447.26l0.475,-9.786l1.42,-9.695l2.351,-9.512l3.26,-9.24l4.14,-8.881l4.979,-8.439l5.773,-7.917l6.512,-7.321l7.19,-6.657l7.8,-5.93l8.337,-5.147l8.797,-4.316l4.108,-1.543l714.26,-357.063l8.569,-3.798l8.884,-2.989l9.122,-2.153l9.282,-1.299l9.363,-0.434l9.363,0.434Zm-732.168,462.03l-0.687,-0.344l0,1447.26l723.076,362.089l0,0.553l0.551,-0.277l0.001,0.001l0,-0.001l723.075,-362.089l0,-1446.7l0.281,-0.14l-0.281,-0.141l0,-0.271l-0.27,0.136l-722.941,-361.403l-722.805,361.335Zm722.94,362.022l-0.067,-0.034l78.637,-39.311l-78.57,39.345Z" style="fill:#0b0b0b;"/></g><path d="M861.894,910.655l191.774,96.033c73.662,36.887 129.966,90.763 168.914,161.628c38.947,70.865 58.421,152.364 58.421,244.497l0,528.971c0,105.9 -20.532,173.72 -61.596,203.459c-41.065,29.739 -100.121,25.317 -177.169,-13.266l-180.344,-90.309l0,-1131.01Zm129.543,1043.39l59.691,29.891c36.408,18.231 62.231,19.779 77.472,4.642c15.24,-15.137 22.86,-47.062 22.86,-95.776l0,-544.856c0,-44.478 -7.197,-82.5 -21.59,-114.064c-14.394,-31.565 -40.641,-56.887 -78.742,-75.967l-59.691,-29.891l0,826.021Z" style="fill:#4441ff;fill-rule:nonzero;"/><path d="M1621.64,1090l129.543,-64.87l0,484.493l160.023,-80.134l0,-484.493l129.543,-64.87l0,1131.01l-129.543,64.87l0,-503.555l-160.023,80.134l0,503.555l-129.543,64.87l0,-1131.01Z" style="fill:#6ec20e;fill-rule:nonzero;"/></g></g></svg>