<?xml version="1.0" encoding="UTF-8" standalone="no"?><!DOCTYPE svg PUBLIC "-//W3C//DTD SVG 1.1//EN" "http://www.w3.org/Graphics/SVG/1.1/DTD/svg11.dtd"><svg width="100%" height="100%" viewBox="0 0 1942 801" version="1.1" xmlns="http://www.w3.org/2000/svg" xmlns:xlink="http://www.w3.org/1999/xlink" xml:space="preserve" style="fill-rule:evenodd;clip-rule:evenodd;stroke-linejoin:round;stroke-miterlimit:1.41421;"><rect id="DeepHire_Logo_Color" x="0" y="0.65" width="1942" height="800" style="fill:none;"/><g><g><g><path d="M344.949,58.571l4.436,1.047l4.222,1.717l211.069,105.515l-0.077,0l0.186,0.094l-0.036,-0.058l0.082,0.042l0.38,0.232l1.86,0.941l1.493,1.108l0.555,0.338l0.543,0.476l1.426,1.057l1.115,1.167l0.696,0.609l0.636,0.784l1.009,1.055l0.755,1.12l0.766,0.943l0.635,1.133l0.64,0.949l0.445,0.985l0.737,1.316l0.529,1.491l0.346,0.766l0.203,0.783l0.602,1.695l0.313,1.825l0.14,0.536l0.046,0.543l0.352,2.048l0,2.098l0.025,0.294l0,0.079l-0.025,-0.04l0,0.163l0.025,-0.041l0,422.378l-0.368,4.647l-1.095,4.533l-1.795,4.303l-2.45,3.967l-3.044,3.531l-3.562,3.009l-3.991,2.41l-211.108,105.715l0.096,-0.156l-0.589,0.275l0.485,-0.115l-0.161,0.081l-1.724,0.687l-1.229,0.573l-0.639,0.171l-1.053,0.42l-2.49,0.529l-0.789,0.212l-0.348,0.03l-1.264,0.269l-3.34,0.134l-0.175,0.015l-0.001,0l0.043,-0.01l-1.524,0.061l-4.959,-0.645l-4.778,-1.474l-4.461,-2.258l-0.126,-0.093l-208.684,-104.501l-3.991,-2.411l-3.562,-3.008l-3.044,-3.532l-2.45,-3.967l-1.795,-4.303l-1.095,-4.532l-0.368,-4.648l0,-422.539l0.423,-4.984l1.26,-4.842l2.059,-4.56l2.799,-4.146l3.458,-3.615l4.02,-2.979l4.464,-2.257l0.492,-0.151l208.578,-104.27l4.222,-1.717l4.436,-1.047l4.544,-0.352l4.544,0.352Zm-215.573,134.669l-0.201,-0.101l0,422.539l211.108,105.715l0,0.161l0.161,-0.08l0.001,0l0,-0.001l211.108,-105.715l0,-422.377l0.082,-0.041l-0.082,-0.041l0,-0.079l-0.079,0.04l-211.069,-105.515l-211.029,105.495Zm211.068,105.695l-0.019,-0.01l22.959,-11.477l-22.94,11.487Z" style="fill:#0b0b0b;"/></g><path d="M169.623,248.046l55.99,28.038c21.506,10.77 37.945,26.499 49.316,47.189c11.371,20.689 17.057,44.484 17.057,71.383l0,154.437c0,30.919 -5.995,50.719 -17.984,59.402c-11.989,8.683 -29.231,7.392 -51.726,-3.873l-52.653,-26.367l0,-330.209Zm37.821,304.626l17.428,8.727c10.629,5.323 18.169,5.775 22.618,1.355c4.45,-4.419 6.675,-13.74 6.675,-27.962l0,-159.076c0,-12.985 -2.102,-24.086 -6.304,-33.302c-4.202,-9.215 -11.865,-16.608 -22.989,-22.179l-17.428,-8.727l0,241.164Z" style="fill:#4441ff;fill-rule:nonzero;"/><path d="M391.436,300.408l37.822,-18.939l0,141.452l46.72,-23.396l0,-141.452l37.821,-18.939l0,330.209l-37.821,18.939l0,-147.017l-46.72,23.396l0,147.017l-37.822,18.939l0,-330.209Z" style="fill:#6ec20e;fill-rule:nonzero;"/></g><g transform="matrix(3.39656,0,0,3.39656,-4989.39,-3895.26)"><path d="M1709.91,1239.77c4.741,4.961 7.111,12.109 7.111,21.444l0,18.081c0,8.967 -2.37,15.858 -7.111,20.672c-4.741,4.814 -11.668,7.221 -20.782,7.221c-6.248,0 -12.789,-0.22 -19.625,-0.661l0,-73.758c6.615,-0.294 13.34,-0.441 20.176,-0.441c8.747,0 15.49,2.48 20.231,7.442Zm-31.036,0.716l0,57.993c4.337,0.441 7.755,0.661 10.254,0.661c5.659,0 10.161,-1.635 13.506,-4.906c3.344,-3.271 5.016,-7.993 5.016,-14.167l0,-19.515c0,-6.689 -1.617,-11.742 -4.851,-15.16c-3.234,-3.417 -7.791,-5.126 -13.671,-5.126c-2.279,0 -5.697,0.073 -10.254,0.22Z" style="fill:none;"/><path d="M1758.15,1255.81c3.234,3.381 4.851,8.269 4.851,14.664l0,11.356l-28.334,0l0,6.504c0,3.749 0.9,6.45 2.701,8.104c1.801,1.654 4.649,2.481 8.544,2.481c3.822,0 8.6,-0.588 14.333,-1.764l0.221,8.158c-6.836,1.25 -11.724,1.874 -14.664,1.874c-7.276,0 -12.513,-1.58 -15.711,-4.74c-3.197,-3.161 -4.796,-8.049 -4.796,-14.664l0,-17.309c0,-6.395 1.562,-11.283 4.686,-14.664c3.124,-3.381 7.81,-5.071 14.057,-5.071c6.174,0 10.878,1.69 14.112,5.071Zm-20.947,5.458c-1.691,1.8 -2.536,4.391 -2.536,7.772l0,5.292l18.963,0l0,-4.961c0,-3.528 -0.864,-6.211 -2.591,-8.048c-1.727,-1.838 -4.061,-2.757 -7.001,-2.757c-2.866,0 -5.145,0.901 -6.835,2.702Z" style="fill:none;"/><path d="M1801.59,1255.81c3.235,3.381 4.852,8.269 4.852,14.664l0,11.356l-28.335,0l0,6.504c0,3.749 0.9,6.45 2.701,8.104c1.801,1.654 4.649,2.481 8.545,2.481c3.822,0 8.599,-0.588 14.332,-1.764l0.221,8.158c-6.836,1.25 -11.724,1.874 -14.664,1.874c-7.276,0 -12.513,-1.58 -15.711,-4.74c-3.197,-3.161 -4.796,-8.049 -4.796,-14.664l0,-17.309c0,-6.395 1.562,-11.283 4.686,-14.664c3.124,-3.381 7.81,-5.071 14.057,-5.071c6.174,0 10.878,1.69 14.112,5.071Zm-20.947,5.458c-1.691,1.8 -2.536,4.391 -2.536,7.772l0,5.292l18.963,0l0,-4.961c0,-3.528 -0.863,-6.211 -2.591,-8.048c-1.727,-1.838 -4.061,-2.757 -7.001,-2.757c-2.866,0 -5.145,0.901 -6.835,2.702Z" style="fill:none;"/><path d="M1847.78,1255.48c2.572,3.161 3.859,7.718 3.859,13.672l0,19.624c0,5.734 -1.489,10.235 -4.465,13.506c-2.977,3.271 -7.001,4.906 -12.073,4.906c-1.911,0 -3.951,-0.385 -6.119,-1.157c-2.168,-0.772 -4.171,-1.672 -6.009,-2.701l0,22.932l-9.371,0l0,-74.199l8.82,0l0,7.827c4.043,-6.1 8.894,-9.15 14.553,-9.15c4.631,0 8.232,1.58 10.805,4.74Zm-19.129,6.009c-2.168,1.58 -4.061,3.73 -5.678,6.45l0,27.012c1.544,1.249 3.253,2.223 5.127,2.921c1.874,0.698 3.583,1.048 5.127,1.048c6.027,0 9.04,-3.822 9.04,-11.467l0,-16.978c0,-7.571 -2.388,-11.356 -7.166,-11.356c-2.132,0 -4.281,0.79 -6.45,2.37Z" style="fill:none;"/><path d="M1908.42,1233.65l0,72.214l-9.371,0l0,-33.075l-28.666,0l0,33.075l-9.371,0l0,-72.214l9.371,0l0,30.76l28.666,0l0,-30.76l9.371,0Z" style="fill:none;"/><path d="M1930.47,1252.07l0,53.802l-9.372,0l0,-53.802l9.372,0Zm-0.166,-20.397c1.066,0.882 1.599,2.132 1.599,3.749l0,3.197c0,1.617 -0.533,2.848 -1.599,3.693c-1.066,0.846 -2.591,1.268 -4.575,1.268c-1.911,0 -3.4,-0.422 -4.465,-1.268c-1.066,-0.845 -1.599,-2.076 -1.599,-3.693l0,-3.197c0,-1.617 0.533,-2.867 1.599,-3.749c1.065,-0.882 2.554,-1.323 4.465,-1.323c1.984,0 3.509,0.441 4.575,1.323Z" style="fill:none;"/><path d="M1968.51,1250.96l0,10.584c-1.102,-0.22 -2.535,-0.33 -4.299,-0.33c-5.145,0 -9.225,2.572 -12.238,7.717l0,36.934l-9.372,0l0,-53.802l8.82,0l0,8.048c1.985,-3.014 4.208,-5.329 6.671,-6.946c2.462,-1.617 5.126,-2.425 7.993,-2.425c1.029,0 1.837,0.073 2.425,0.22Z" style="fill:none;"/><path d="M2006.1,1255.81c3.234,3.381 4.851,8.269 4.851,14.664l0,11.356l-28.334,0l0,6.504c0,3.749 0.9,6.45 2.701,8.104c1.801,1.654 4.649,2.481 8.544,2.481c3.822,0 8.6,-0.588 14.333,-1.764l0.221,8.158c-6.836,1.25 -11.724,1.874 -14.664,1.874c-7.277,0 -12.513,-1.58 -15.711,-4.74c-3.197,-3.161 -4.796,-8.049 -4.796,-14.664l0,-17.309c0,-6.395 1.562,-11.283 4.686,-14.664c3.124,-3.381 7.809,-5.071 14.057,-5.071c6.174,0 10.878,1.69 14.112,5.071Zm-20.948,5.458c-1.69,1.8 -2.535,4.391 -2.535,7.772l0,5.292l18.963,0l0,-4.961c0,-3.528 -0.864,-6.211 -2.591,-8.048c-1.727,-1.838 -4.061,-2.757 -7.001,-2.757c-2.866,0 -5.145,0.901 -6.836,2.702Z" style="fill:none;"/><path d="M1709.91,1239.77c4.741,4.961 7.111,12.109 7.111,21.444l0,18.081c0,8.967 -2.37,15.858 -7.111,20.672c-4.741,4.814 -11.668,7.221 -20.782,7.221c-6.248,0 -12.789,-0.22 -19.625,-0.661l0,-73.758c6.615,-0.294 13.34,-0.441 20.176,-0.441c8.747,0 15.49,2.48 20.231,7.442Zm-31.036,0.716l0,57.993c4.337,0.441 7.755,0.661 10.254,0.661c5.659,0 10.161,-1.635 13.506,-4.906c3.344,-3.271 5.016,-7.993 5.016,-14.167l0,-19.515c0,-6.689 -1.617,-11.742 -4.851,-15.16c-3.234,-3.417 -7.791,-5.126 -13.671,-5.126c-2.279,0 -5.697,0.073 -10.254,0.22Z" style="fill-rule:nonzero;"/><path d="M1758.15,1255.81c3.234,3.381 4.851,8.269 4.851,14.664l0,11.356l-28.334,0l0,6.504c0,3.749 0.9,6.45 2.701,8.104c1.801,1.654 4.649,2.481 8.544,2.481c3.822,0 8.6,-0.588 14.333,-1.764l0.221,8.158c-6.836,1.25 -11.724,1.874 -14.664,1.874c-7.276,0 -12.513,-1.58 -15.711,-4.74c-3.197,-3.161 -4.796,-8.049 -4.796,-14.664l0,-17.309c0,-6.395 1.562,-11.283 4.686,-14.664c3.124,-3.381 7.81,-5.071 14.057,-5.071c6.174,0 10.878,1.69 14.112,5.071Zm-20.947,5.458c-1.691,1.8 -2.536,4.391 -2.536,7.772l0,5.292l18.963,0l0,-4.961c0,-3.528 -0.864,-6.211 -2.591,-8.048c-1.727,-1.838 -4.061,-2.757 -7.001,-2.757c-2.866,0 -5.145,0.901 -6.835,2.702Z" style="fill-rule:nonzero;"/><path d="M1801.59,1255.81c3.235,3.381 4.852,8.269 4.852,14.664l0,11.356l-28.335,0l0,6.504c0,3.749 0.9,6.45 2.701,8.104c1.801,1.654 4.649,2.481 8.545,2.481c3.822,0 8.599,-0.588 14.332,-1.764l0.221,8.158c-6.836,1.25 -11.724,1.874 -14.664,1.874c-7.276,0 -12.513,-1.58 -15.711,-4.74c-3.197,-3.161 -4.796,-8.049 -4.796,-14.664l0,-17.309c0,-6.395 1.562,-11.283 4.686,-14.664c3.124,-3.381 7.81,-5.071 14.057,-5.071c6.174,0 10.878,1.69 14.112,5.071Zm-20.947,5.458c-1.691,1.8 -2.536,4.391 -2.536,7.772l0,5.292l18.963,0l0,-4.961c0,-3.528 -0.863,-6.211 -2.591,-8.048c-1.727,-1.838 -4.061,-2.757 -7.001,-2.757c-2.866,0 -5.145,0.901 -6.835,2.702Z" style="fill-rule:nonzero;"/><path d="M1847.78,1255.48c2.572,3.161 3.859,7.718 3.859,13.672l0,19.624c0,5.734 -1.489,10.235 -4.465,13.506c-2.977,3.271 -7.001,4.906 -12.073,4.906c-1.911,0 -3.951,-0.385 -6.119,-1.157c-2.168,-0.772 -4.171,-1.672 -6.009,-2.701l0,22.932l-9.371,0l0,-74.199l8.82,0l0,7.827c4.043,-6.1 8.894,-9.15 14.553,-9.15c4.631,0 8.232,1.58 10.805,4.74Zm-19.129,6.009c-2.168,1.58 -4.061,3.73 -5.678,6.45l0,27.012c1.544,1.249 3.253,2.223 5.127,2.921c1.874,0.698 3.583,1.048 5.127,1.048c6.027,0 9.04,-3.822 9.04,-11.467l0,-16.978c0,-7.571 -2.388,-11.356 -7.166,-11.356c-2.132,0 -4.281,0.79 -6.45,2.37Z" style="fill-rule:nonzero;"/><path d="M1908.42,1233.65l0,72.214l-9.371,0l0,-33.075l-28.666,0l0,33.075l-9.371,0l0,-72.214l9.371,0l0,30.76l28.666,0l0,-30.76l9.371,0Z" style="fill-rule:nonzero;"/><path d="M1930.47,1252.07l0,53.802l-9.372,0l0,-53.802l9.372,0Zm-0.166,-20.397c1.066,0.882 1.599,2.132 1.599,3.749l0,3.197c0,1.617 -0.533,2.848 -1.599,3.693c-1.066,0.846 -2.591,1.268 -4.575,1.268c-1.911,0 -3.4,-0.422 -4.465,-1.268c-1.066,-0.845 -1.599,-2.076 -1.599,-3.693l0,-3.197c0,-1.617 0.533,-2.867 1.599,-3.749c1.065,-0.882 2.554,-1.323 4.465,-1.323c1.984,0 3.509,0.441 4.575,1.323Z" style="fill-rule:nonzero;"/><path d="M1968.51,1250.96l0,10.584c-1.102,-0.22 -2.535,-0.33 -4.299,-0.33c-5.145,0 -9.225,2.572 -12.238,7.717l0,36.934l-9.372,0l0,-53.802l8.82,0l0,8.048c1.985,-3.014 4.208,-5.329 6.671,-6.946c2.462,-1.617 5.126,-2.425 7.993,-2.425c1.029,0 1.837,0.073 2.425,0.22Z" style="fill-rule:nonzero;"/><path d="M2006.1,1255.81c3.234,3.381 4.851,8.269 4.851,14.664l0,11.356l-28.334,0l0,6.504c0,3.749 0.9,6.45 2.701,8.104c1.801,1.654 4.649,2.481 8.544,2.481c3.822,0 8.6,-0.588 14.333,-1.764l0.221,8.158c-6.836,1.25 -11.724,1.874 -14.664,1.874c-7.277,0 -12.513,-1.58 -15.711,-4.74c-3.197,-3.161 -4.796,-8.049 -4.796,-14.664l0,-17.309c0,-6.395 1.562,-11.283 4.686,-14.664c3.124,-3.381 7.809,-5.071 14.057,-5.071c6.174,0 10.878,1.69 14.112,5.071Zm-20.948,5.458c-1.69,1.8 -2.535,4.391 -2.535,7.772l0,5.292l18.963,0l0,-4.961c0,-3.528 -0.864,-6.211 -2.591,-8.048c-1.727,-1.838 -4.061,-2.757 -7.001,-2.757c-2.866,0 -5.145,0.901 -6.836,2.702Z" style="fill-rule:nonzero;"/></g></g></svg>